<?xml version="1.0" encoding="UTF-8" standalone="no"?>
<svg
   width="128"
   height="128"
   version="1.1"
   id="svg6"
   sodipodi:docname="icon.svg"
   inkscape:version="1.3.2 (091e20ef0f, 2023-11-25, custom)"
   xmlns:inkscape="http://www.inkscape.org/namespaces/inkscape"
   xmlns:sodipodi="http://sodipodi.sourceforge.net/DTD/sodipodi-0.dtd"
   xmlns="http://www.w3.org/2000/svg"
   xmlns:svg="http://www.w3.org/2000/svg">
  <defs
     id="defs6" />
  <sodipodi:namedview
     id="namedview6"
     pagecolor="#ffffff"
     bordercolor="#000000"
     borderopacity="0.25"
     inkscape:showpageshadow="2"
     inkscape:pageopacity="0.0"
     inkscape:pagecheckerboard="0"
     inkscape:deskcolor="#d1d1d1"
     inkscape:zoom="2.8173786"
     inkscape:cx="75.069783"
     inkscape:cy="54.305801"
     inkscape:window-width="1366"
     inkscape:window-height="714"
     inkscape:window-x="0"
     inkscape:window-y="0"
     inkscape:window-maximized="1"
     inkscape:current-layer="svg6" />
  <rect
     width="124"
     height="124"
     x="2"
     y="2"
     fill="#363d52"
     stroke="#212532"
     stroke-width="4"
     rx="14"
     id="rect1"
     style="fill:#1d1d1b;fill-opacity:1;stroke:#1d1d1b;stroke-opacity:1" />
  <g
     id="Capa_2"
     data-name="Capa 2"
     transform="matrix(0.11940693,0,0,0.11940693,4.3003633,0.9089604)">
    <path
       class="cls-1"
       d="m 383.62,706.06 v 17.2 H 360.69 V 729 h 22.93 v 40.1 H 343.5 v -17.19 h 22.92 v -5.73 H 343.5 v -40.12 z"
       id="path1-3"
       style="fill:#ffffff" />
    <path
       class="cls-1"
       d="m 441.5,706.06 v 17.2 H 430 v 45.84 h -17.15 v -45.84 h -11.47 v -17.2 z"
       id="path2-6"
       style="fill:#ffffff" />
    <path
       class="cls-1"
       d="m 499.38,706.06 v 63 h -40.11 v -63 h 17.19 v 45.85 h 5.73 v -45.85 z"
       id="path3-7"
       style="fill:#ffffff" />
    <path
       class="cls-1"
       d="m 517.15,769.1 v -63 h 34.38 l 5.73,5.74 v 51.57 l -5.73,5.73 z m 17.19,-17.19 h 5.73 v -28.65 h -5.73 z"
       id="path4"
       style="fill:#ffffff" />
    <path
       class="cls-1"
       d="m 575,769.1 v -63 h 17.19 v 63 z"
       id="path5"
       style="fill:#ffffff" />
    <path
       class="cls-1"
       d="m 650.11,706.06 v 63 H 610 v -63 z m -17.2,17.2 h -5.73 v 28.65 h 5.73 z"
       id="path6"
       style="fill:#ffffff" />
    <path
       class="cls-1"
       d="m 566.2,543.91 v -0.14 c -1.37,0.08 -2.75,0.14 -4.14,0.14 z"
       id="path7"
       style="fill:#ffffff" />
    <path
       class="cls-1"
       d="m 590.6,287.64 a 198.87,198.87 0 0 1 98.61,62.52 v -62.52 z"
       id="path8"
       style="fill:#ffffff" />
    <path
       class="cls-1"
       d="m 590.6,670.43 h 100 L 904.28,287.64 H 772 L 715.3,389.17 A 199,199 0 0 1 736.79,479 196.49,196.49 0 0 1 695.46,600.2 198.9,198.9 0 0 1 590.6,670.43 Z"
       id="path9"
       style="fill:#ffffff" />
    <path
       class="cls-1"
       d="M 711.17,396.57 558.94,669.33 a 191.6,191.6 0 0 0 131,-73.37 A 189.59,189.59 0 0 0 729.81,479 192.1,192.1 0 0 0 711.17,396.57 Z"
       id="path10"
       style="fill:#ffffff" />
    <path
       class="cls-1"
       d="m 421.36,670.43 h 117.06 c 4,0 8.07,-0.13 12.14,-0.39 l 156.81,-281 a 191.66,191.66 0 0 0 -17.43,-26.95 v 0 a 191.56,191.56 0 0 0 -137.8,-74 c -4.6,-0.32 -9.22,-0.49 -13.72,-0.49 H 421.36 v 122.29 h 148.33 v 0.44 a 68.74,68.74 0 0 1 0,136.63 v 0.29 l -7.63,0.15 h -49.57 v -50.31 h -91.13 z"
       id="path11"
       style="fill:#ffffff" />
    <path
       class="cls-1"
       d="m 283.48,670.43 h 130.9 V 497.09 h -102 v 50.31 h -49.66 a 68.76,68.76 0 0 1 2.13,-137.48 H 414.38 V 287.64 H 281.89 l -1.77,0.14 a 191.38,191.38 0 0 0 0,382.51 z"
       id="path12"
       style="fill:#ffffff" />
  </g>
</svg>
