<svg xmlns="http://www.w3.org/2000/svg" viewBox="0 0 1000 1000"><defs><style>.cls-1{fill:#fff;}</style></defs><g id="Capa_2" data-name="Capa 2"><path class="cls-1" d="M383.62,706.06v17.2H360.69V729h22.93V769.1H343.5V751.91h22.92v-5.73H343.5V706.06Z"/><path class="cls-1" d="M441.5,706.06v17.2H430V769.1H412.85V723.26H401.38v-17.2Z"/><path class="cls-1" d="M499.38,706.06v63H459.27v-63h17.19v45.85h5.73V706.06Z"/><path class="cls-1" d="M517.15,769.1v-63h34.38l5.73,5.74v51.57l-5.73,5.73Zm17.19-17.19h5.73V723.26h-5.73Z"/><path class="cls-1" d="M575,769.1v-63h17.19v63Z"/><path class="cls-1" d="M650.11,706.06v63H610v-63Zm-17.2,17.2h-5.73v28.65h5.73Z"/><path class="cls-1" d="M566.2,543.91v-.14c-1.37.08-2.75.14-4.14.14Z"/><path class="cls-1" d="M590.6,287.64a198.87,198.87,0,0,1,98.61,62.52V287.64Z"/><path class="cls-1" d="M590.6,670.43h100L904.28,287.64H772L715.3,389.17A199,199,0,0,1,736.79,479a196.49,196.49,0,0,1-41.33,121.2A198.9,198.9,0,0,1,590.6,670.43Z"/><path class="cls-1" d="M711.17,396.57,558.94,669.33a191.6,191.6,0,0,0,131-73.37A189.59,189.59,0,0,0,729.81,479,192.1,192.1,0,0,0,711.17,396.57Z"/><path class="cls-1" d="M421.36,670.43H538.42c4,0,8.07-.13,12.14-.39l156.81-281a191.66,191.66,0,0,0-17.43-26.95h0a191.56,191.56,0,0,0-137.8-74c-4.6-.32-9.22-.49-13.72-.49H421.36V409.89H569.69v.44a68.74,68.74,0,0,1,0,136.63v.29l-7.63.15H512.49V497.09H421.36Z"/><path class="cls-1" d="M283.48,670.43h130.9V497.09h-102V547.4l-49.66,0a68.76,68.76,0,0,1,2.13-137.48H414.38V287.64H281.89l-1.77.14a191.38,191.38,0,0,0,0,382.51Z"/></g></svg>